<svg xmlns="http://www.w3.org/2000/svg" width="386.478" height="226.711" viewBox="0 0 386.478 226.711">
  <g id="Group_24" data-name="Group 24" transform="translate(0 -195.024)">
    <path id="Path_234" data-name="Path 234" d="M407.273,664.136c-34.227,52.489-24.849,119.249-24.849,119.249s64.872-18.342,99.1-70.832S506.372,593.3,506.372,593.3,441.5,611.647,407.273,664.136Z" transform="translate(-143.166 -363.123)" fill="#3f3d56"/>
    <path id="Path_235" data-name="Path 235" d="M363.806,784.67s-.833-.133-2.367-.443c-1.223-.248-2.907-.6-4.964-1.09-18.384-4.334-67.261-18.987-99.217-57.511-40-48.239-38.311-115.633-38.311-115.633S280.1,619.93,320.4,663.249q2.619,2.792,5.1,5.788c34.8,41.972,38.045,98.446,38.3,112.407C363.832,783.536,363.806,784.67,363.806,784.67Z" transform="translate(-124.73 -365.018)" fill="#6c63ff"/>
    <path id="Path_236" data-name="Path 236" d="M341.692,664.136c34.227,52.489,24.849,119.249,24.849,119.249s-64.872-18.342-99.1-70.832S242.593,593.3,242.593,593.3,307.465,611.647,341.692,664.136Z" transform="translate(-127.283 -363.123)" fill="none" stroke="#3f3d56" stroke-miterlimit="10" stroke-width="2"/>
    <path id="Path_237" data-name="Path 237" d="M376.7,788.268c-.9,1.09-1.7,2.021-2.358,2.783-1.454,1.658-2.278,2.526-2.278,2.526s-1-1.259-2.686-3.617c-9.245-12.889-38.985-58.716-36.689-111.653q.186-4.162.612-8.235,2.619,2.792,5.1,5.788C373.2,717.833,376.446,774.307,376.7,788.268Z" transform="translate(-137.636 -371.842)" opacity="0.1"/>
    <path id="Path_238" data-name="Path 238" d="M428.248,668.911c-2.705,62.6-49.178,111.442-49.178,111.442s-42.086-52.665-39.381-115.269,49.178-111.442,49.178-111.442S430.954,606.307,428.248,668.911Z" transform="translate(-138.431 -358.618)" fill="#52c79c"/>
    <circle id="Ellipse_32" data-name="Ellipse 32" cx="5.793" cy="5.793" r="5.793" transform="translate(23.865 319.189)" fill="#ff6584"/>
    <line id="Line_4" data-name="Line 4" x2="241.992" transform="translate(144.486 420.069)" fill="none" stroke="#3f3d56" stroke-miterlimit="10" stroke-width="2"/>
    <line id="Line_5" data-name="Line 5" x2="114.348" transform="translate(0 420.069)" fill="none" stroke="#3f3d56" stroke-miterlimit="10" stroke-width="2"/>
    <line id="Line_6" data-name="Line 6" y1="65.96" transform="translate(58.04 355.174)" fill="#3f3d56" stroke="#3f3d56" stroke-miterlimit="10" stroke-width="2"/>
    <circle id="Ellipse_33" data-name="Ellipse 33" cx="9.328" cy="9.328" r="9.328" transform="translate(48.713 345.847)" fill="#3f3d56"/>
    <path id="Path_239" data-name="Path 239" d="M174.465,776.895s-1.332-28.66-28.649-25.328" transform="translate(-116.425 -381.068)" fill="#3f3d56"/>
    <line id="Line_7" data-name="Line 7" y1="222.385" x2="10.217" transform="translate(240.639 197.578)" fill="none" stroke="#3f3d56" stroke-miterlimit="10" stroke-width="2"/>
    <g id="fingerprint" transform="translate(111.207 322.736)">
      <path id="Path_1" data-name="Path 1" d="M158.724,232.643V227.6a3.6,3.6,0,1,0-7.207,0v4.55a22.124,22.124,0,0,1-5.688,14.823l-5.058,5.62a1.15,1.15,0,1,0,1.71,1.539l5.058-5.62a24.421,24.421,0,0,0,6.279-16.362V227.6a1.3,1.3,0,1,1,2.607,0v5.04a27.011,27.011,0,0,1-7.039,18.207l-4.93,5.423a1.15,1.15,0,1,0,1.7,1.547l4.93-5.423A29.306,29.306,0,0,0,158.724,232.643Z" transform="translate(-74.353 -189.65)" fill="#fff"/>
      <path id="Path_2" data-name="Path 2" d="M151.566,200.511a8.511,8.511,0,0,0-17.022,0v4.55a17.224,17.224,0,0,1-4.429,11.541l-3.6,4a1.15,1.15,0,1,0,1.71,1.539l3.6-4a19.521,19.521,0,0,0,5.019-13.079v-4.55a6.211,6.211,0,0,1,12.421,0v5.04a31.908,31.908,0,0,1-8.315,21.507l-4.16,4.576a1.15,1.15,0,1,0,1.7,1.547l4.16-4.576a34.2,34.2,0,0,0,8.913-23.055Z" transform="translate(-62.287 -162.557)" fill="#fff"/>
      <path id="Path_3" data-name="Path 3" d="M138.311,173.418a13.418,13.418,0,1,0-26.836,0v4.55a12.325,12.325,0,0,1-3.169,8.258l-3.237,3.6a1.15,1.15,0,1,0,1.71,1.539l3.237-3.6a14.622,14.622,0,0,0,3.759-9.8v-4.55a11.118,11.118,0,1,1,22.235,0v5.04a36.8,36.8,0,0,1-9.591,24.808l-1.151,1.266a1.15,1.15,0,1,0,1.7,1.547l1.151-1.266a39.1,39.1,0,0,0,10.189-26.355v-5.04Z" transform="translate(-44.125 -135.464)" fill="#fff"/>
      <path id="Path_4" data-name="Path 4" d="M116.476,147.291a1.15,1.15,0,0,0,2.3,0,16.052,16.052,0,0,1,13.735-15.862,1.15,1.15,0,1,0-.327-2.277,18.352,18.352,0,0,0-15.708,18.138Z" transform="translate(-54.033 -109.337)" fill="#fff"/>
      <path id="Path_5" data-name="Path 5" d="M90.707,270.822a1.15,1.15,0,1,0-2.3,0A7.425,7.425,0,0,1,86.5,275.8l-2.88,3.2a1.15,1.15,0,0,0,1.71,1.539l2.88-3.2A9.722,9.722,0,0,0,90.707,270.822Z" transform="translate(-25.964 -228.318)" fill="#fff"/>
      <path id="Path_6" data-name="Path 6" d="M323.886,343.916a1.151,1.151,0,0,0-1.4.821,41.767,41.767,0,0,1-1.57,4.793,1.15,1.15,0,1,0,2.139.847,44.1,44.1,0,0,0,1.657-5.058A1.15,1.15,0,0,0,323.886,343.916Z" transform="translate(-227.05 -291.145)" fill="#fff"/>
      <path id="Path_7" data-name="Path 7" d="M305.2,157a1.15,1.15,0,0,0-1.538,1.71,16.053,16.053,0,0,1,5.323,11.917v5.04a42.121,42.121,0,0,1-.392,5.729,1.15,1.15,0,1,0,2.279.314,44.43,44.43,0,0,0,.414-6.043v-5.039A18.356,18.356,0,0,0,305.2,157Z" transform="translate(-212.188 -132.678)" fill="#fff"/>
      <path id="Path_8" data-name="Path 8" d="M250.034,132.81a1.15,1.15,0,0,0,.989-2.077,18.173,18.173,0,0,0-5.235-1.582,1.15,1.15,0,1,0-.327,2.277A15.883,15.883,0,0,1,250.034,132.81Z" transform="translate(-162.404 -109.336)" fill="#fff"/>
      <path id="Path_9" data-name="Path 9" d="M222.832,96c-.43,0-.865.012-1.294.036a1.15,1.15,0,1,0,.127,2.3c.386-.021.779-.032,1.167-.032a20.956,20.956,0,0,1,20.932,20.932v5.04a1.15,1.15,0,1,0,2.3,0v-5.039A23.258,23.258,0,0,0,222.832,96Z" transform="translate(-142.064 -81.279)" fill="#fff"/>
      <path id="Path_10" data-name="Path 10" d="M147.616,106.789a1.145,1.145,0,0,0,.656-.206,20.81,20.81,0,0,1,6.246-2.953,1.15,1.15,0,0,0-.624-2.214,23.107,23.107,0,0,0-6.935,3.278,1.15,1.15,0,0,0,.658,2.095Z" transform="translate(-79.423 -85.827)" fill="#fff"/>
      <path id="Path_11" data-name="Path 11" d="M73.732,162.127v-4.55a20.841,20.841,0,0,1,5.705-14.348,1.15,1.15,0,0,0-1.674-1.578,23.133,23.133,0,0,0-6.332,15.926v4.55a2.525,2.525,0,0,1-.649,1.692L69.364,165.4a1.15,1.15,0,0,0,1.71,1.539l1.418-1.576A4.823,4.823,0,0,0,73.732,162.127Z" transform="translate(-13.896 -119.624)" fill="#fff"/>
      <path id="Path_12" data-name="Path 12" d="M366.028,131.474a27.983,27.983,0,0,0-5.958-10.066,1.15,1.15,0,1,0-1.694,1.556,25.7,25.7,0,0,1,5.472,9.243,1.15,1.15,0,0,0,2.18-.733Z" transform="translate(-258.581 -102.475)" fill="#fff"/>
      <path id="Path_13" data-name="Path 13" d="M286.84,73.478a1.15,1.15,0,1,0-.745,2.176,25.763,25.763,0,0,1,7.077,3.737,1.15,1.15,0,0,0,1.376-1.844A28.066,28.066,0,0,0,286.84,73.478Z" transform="translate(-196.983 -62.158)" fill="#fff"/>
      <path id="Path_14" data-name="Path 14" d="M62.9,73.493A25.71,25.71,0,0,1,80.768,66.3a26.079,26.079,0,0,1,3.71.265,1.15,1.15,0,0,0,.329-2.277A28.394,28.394,0,0,0,80.768,64a28.173,28.173,0,0,0-28.11,26.861,1.15,1.15,0,0,0,1.1,1.2h.053a1.15,1.15,0,0,0,1.148-1.1A25.71,25.71,0,0,1,62.9,73.493Z" transform="translate(0 -54.186)" fill="#fff"/>
      <path id="Path_15" data-name="Path 15" d="M189.031,32a33.1,33.1,0,0,0-7.617.886,1.15,1.15,0,1,0,.53,2.238,30.809,30.809,0,0,1,7.087-.824A30.484,30.484,0,0,1,211.2,43.761a1.15,1.15,0,1,0,1.659-1.593A32.957,32.957,0,0,0,189.031,32Z" transform="translate(-108.263 -27.093)" fill="#fff"/>
      <path id="Path_16" data-name="Path 16" d="M65.072,59.667a1.15,1.15,0,0,0,1.615-.2,30.945,30.945,0,0,1,12.479-9.5,1.15,1.15,0,0,0-.881-2.125,33.25,33.25,0,0,0-13.409,10.2A1.15,1.15,0,0,0,65.072,59.667Z" transform="translate(-10.138 -40.436)" fill="#fff"/>
      <path id="Path_17" data-name="Path 17" d="M125.627,5.938a1.143,1.143,0,0,0,.5-.115A35.242,35.242,0,0,1,141.574,2.3a35.7,35.7,0,0,1,8.342.985,1.15,1.15,0,1,0,.538-2.236A38,38,0,0,0,141.574,0a37.523,37.523,0,0,0-16.448,3.752,1.15,1.15,0,0,0,.5,2.186Z" transform="translate(-60.807 0)" fill="#fff"/>
      <path id="Path_18" data-name="Path 18" d="M317.721,19.132a35.625,35.625,0,0,1,3.488,1.613,1.15,1.15,0,0,0,1.077-2.032A37.945,37.945,0,0,0,318.572,17a1.15,1.15,0,1,0-.851,2.137Z" transform="translate(-223.804 -14.32)" fill="#fff"/>
    </g>
  </g>
</svg>
