<svg xmlns="http://www.w3.org/2000/svg" width="32.075" height="32.065" viewBox="0 0 32.075 32.065">
  <g id="home" transform="translate(-47.982 -48)">
    <path id="Path_252" data-name="Path 252" d="M108.525,103.269a.3.3,0,0,0-.385,0l-12.024,9.619a.324.324,0,0,0-.116.239v17.728a.155.155,0,0,0,.154.154h8.325a.155.155,0,0,0,.154-.154V120.065a.155.155,0,0,1,.154-.154h7.091a.155.155,0,0,1,.154.154v10.791a.155.155,0,0,0,.154.154h8.325a.155.155,0,0,0,.154-.154V113.128a.311.311,0,0,0-.116-.239Z" transform="translate(-44.317 -50.945)" fill="#b5b5b5"/>
    <path id="Path_253" data-name="Path 253" d="M79.64,60.04,65.072,48.37a1.692,1.692,0,0,0-2.112,0l-6.344,5.157V50.274a.155.155,0,0,0-.154-.154H51.838a.155.155,0,0,0-.154.154v7.107l-3.291,2.705A1.079,1.079,0,0,0,48.3,61.7a1.072,1.072,0,0,0,.763.316,1.086,1.086,0,0,0,.678-.239L63.916,50.366a.138.138,0,0,1,.1-.031.187.187,0,0,1,.1.031L78.291,61.728a1.086,1.086,0,0,0,.678.239,1.094,1.094,0,0,0,1.087-1.141,1.1,1.1,0,0,0-.416-.786Z" fill="#b5b5b5"/>
  </g>
</svg>
