<svg xmlns="http://www.w3.org/2000/svg" xmlns:xlink="http://www.w3.org/1999/xlink" width="27.09" height="84.262" viewBox="0 0 27.09 84.262">
  <defs>
    <linearGradient id="linear-gradient" x1="0.5" y1="1" x2="0.5" gradientUnits="objectBoundingBox">
      <stop offset="0" stop-color="gray" stop-opacity="0.251"/>
      <stop offset="0.54" stop-color="gray" stop-opacity="0.122"/>
      <stop offset="1" stop-color="gray" stop-opacity="0.102"/>
    </linearGradient>
  </defs>
  <g id="human_2" data-name="human 2" transform="translate(-261.841 -35.211)">
    <g id="Group_14" data-name="Group 14" transform="translate(261.841 35.211)" opacity="0.7">
      <path id="Path_207" data-name="Path 207" d="M587,186.319l-.644-.12,1.271-4.671c2-15-5.558-16.517-8.393-16.569a9.317,9.317,0,0,0-1-.3v-1.77a9.4,9.4,0,0,0,7.018-7.586h.025c.45,0,.816-.686.816-1.531a2.124,2.124,0,0,0-.357-1.264q.049-.492.049-.983a9.764,9.764,0,0,0-3.031-7.077,6.294,6.294,0,0,0-.693-1.863c-.7-1.229-1.854-2.5-1.382-3.832l-3.056.315-.029-2.013c-.954.172-1.354,1.276-1.92,2.062-1.362,1.893-4.093,2.156-5.9,3.631-.615.492-2,2.026-1.733,3.026a9.75,9.75,0,0,0-1.863,5.745q0,.492.049.983a2.124,2.124,0,0,0-.356,1.264c0,.846.366,1.531.816,1.531h.025a9.4,9.4,0,0,0,7.018,7.586v1.77a9.31,9.31,0,0,0-1,.3c-2.834.052-10.394,1.563-8.393,16.569l1.271,4.671-.3.057a3.483,3.483,0,0,0-2.785,4.064l5.022,26.842a1.055,1.055,0,0,0,1.229.843l.883-.165v.521a2.93,2.93,0,0,0-1.632,2.625v.332h5.92v-.332a2.93,2.93,0,0,0-1.428-2.515V217.3l.806-.15a1.055,1.055,0,0,0,.843-1.229L569.464,190.7H582.51l-4.7,25.219a1.055,1.055,0,0,0,.843,1.229l.806.15v1.168a2.93,2.93,0,0,0-1.428,2.515v.332h5.92v-.332a2.93,2.93,0,0,0-1.632-2.625v-.521l.883.165a1.055,1.055,0,0,0,1.229-.843l5.074-27.179A3.134,3.134,0,0,0,587,186.319Z" transform="translate(-562.467 -137.05)" fill="url(#linear-gradient)"/>
    </g>
    <rect id="Rectangle_35" data-name="Rectangle 35" width="2.748" height="3.732" transform="translate(269.278 112.575)" fill="#fdb797"/>
    <rect id="Rectangle_36" data-name="Rectangle 36" width="2.748" height="3.732" transform="translate(278.703 112.575)" fill="#fdb797"/>
    <rect id="Rectangle_37" data-name="Rectangle 37" width="18.066" height="6.48" transform="translate(266.333 81.945)" fill="#4d8af0"/>
    <g id="Group_15" data-name="Group 15" transform="translate(266.333 81.945)" opacity="0.05">
      <rect id="Rectangle_38" data-name="Rectangle 38" width="18.066" height="6.48"/>
    </g>
    <path id="Path_208" data-name="Path 208" d="M580.74,328.933s6.741,1.571,9.032,1.571,9.032-1.571,9.032-1.571v-.983H580.74Z" transform="translate(-314.407 -245.811)" opacity="0.1"/>
    <path id="Path_209" data-name="Path 209" d="M598.8,270.311s-6.741,1.571-9.032,1.571-9.032-1.571-9.032-1.571v-10.8a9.032,9.032,0,0,1,9.032-9.032h0a9.032,9.032,0,0,1,9.032,9.032Z" transform="translate(-314.407 -187.385)" fill="#f55f44"/>
    <path id="Path_210" data-name="Path 210" d="M479.7,153.34h4.319v5.2a1.871,1.871,0,0,1-1.871,1.871h-.575a1.871,1.871,0,0,1-1.871-1.871v-5.2Z" transform="translate(-206.493 -94.763)" fill="#fdb797"/>
    <path id="Path_211" data-name="Path 211" d="M575.211,364.771l-3.872.723a1.271,1.271,0,0,1-1.475-1.015l-4.617-24.74a4.194,4.194,0,0,1,3.353-4.894l1-.187a1.271,1.271,0,0,1,1.475,1.015l5.162,27.614a1.271,1.271,0,0,1-1.025,1.485Z" transform="translate(-302.668 -250.854)" fill="#4d8af0"/>
    <path id="Path_212" data-name="Path 212" d="M625.71,364.779l3.872.723a1.271,1.271,0,0,0,1.475-1.015l4.7-25.153a3.776,3.776,0,0,0-3.019-4.4l-1.411-.263a1.271,1.271,0,0,0-1.475,1.015L624.685,363.3a1.271,1.271,0,0,0,1.025,1.482Z" transform="translate(-347.533 -250.861)" fill="#4d8af0"/>
    <path id="Path_213" data-name="Path 213" d="M608.7,235.978a9.039,9.039,0,0,0,4.319,0V232.9H608.7Z" transform="translate(-335.493 -174.127)" opacity="0.1"/>
    <circle id="Ellipse_17" data-name="Ellipse 17" cx="9.425" cy="9.425" r="9.425" transform="translate(265.94 41.298)" fill="#333"/>
    <circle id="Ellipse_18" data-name="Ellipse 18" cx="9.032" cy="9.032" r="9.032" transform="translate(266.333 43.852)" fill="#fdb797"/>
    <path id="Path_214" data-name="Path 214" d="M587.992,149.009c1.738-1.418,4.366-1.672,5.674-3.493.543-.757.929-1.822,1.846-1.986l.027,1.937,2.95-.3c-.455,1.278.659,2.507,1.33,3.687a6.062,6.062,0,0,1,.784,2.854c-1.02.612-2.286-.057-3.422-.413a12.371,12.371,0,0,0-3.442-.415,7.141,7.141,0,0,0-1.775.1,8.953,8.953,0,0,0-1.475.538c-.782.327-3.252,1.563-3.977.767C585.7,151.379,587.321,149.558,587.992,149.009Z" transform="translate(-318.591 -106.726)" fill="#333"/>
    <path id="Path_215" data-name="Path 215" d="M590.911,174.454a4.143,4.143,0,0,0,1.6.492,14.071,14.071,0,0,0,6.856-.769A3.344,3.344,0,0,0,601.525,176a10.039,10.039,0,0,0,2.9.324,1.072,1.072,0,0,0,.622-.118c.435-.293.224-.966-.03-1.423l-1.259-2.281a6.76,6.76,0,0,0-1.33-1.871,5.531,5.531,0,0,0-2.625-1.128,14.809,14.809,0,0,0-6.741.224C590.707,170.351,587.685,172.5,590.911,174.454Z" transform="translate(-321.018 -126.101)" opacity="0.1"/>
    <path id="Path_216" data-name="Path 216" d="M590.911,173.654a4.143,4.143,0,0,0,1.6.492,14.071,14.071,0,0,0,6.856-.769,3.344,3.344,0,0,0,2.161,1.827,10.04,10.04,0,0,0,2.9.324,1.072,1.072,0,0,0,.622-.118c.435-.293.224-.966-.03-1.423l-1.259-2.281a6.76,6.76,0,0,0-1.33-1.871,5.531,5.531,0,0,0-2.625-1.128,14.809,14.809,0,0,0-6.741.224C590.707,169.546,587.685,171.7,590.911,173.654Z" transform="translate(-321.018 -125.498)" fill="#333"/>
    <ellipse id="Ellipse_19" data-name="Ellipse 19" cx="0.787" cy="1.473" rx="0.787" ry="1.473" transform="translate(283.514 51.411)" fill="#fdb797"/>
    <ellipse id="Ellipse_20" data-name="Ellipse 20" cx="0.787" cy="1.473" rx="0.787" ry="1.473" transform="translate(265.645 51.411)" fill="#fdb797"/>
    <path id="Path_217" data-name="Path 217" d="M580.036,252.767s-11.426-1.78-9.069,15.893l1.374,5.066,3.933-.157s-2.552-5.9-.983-9.818S580.036,252.767,580.036,252.767Z" transform="translate(-306.795 -189.072)" fill="#f55f44"/>
    <path id="Path_218" data-name="Path 218" d="M626.12,252.767s11.426-1.78,9.069,15.893l-1.374,5.066-3.933-.157s2.552-5.9.983-9.818S626.12,252.767,626.12,252.767Z" transform="translate(-348.631 -189.072)" fill="#f55f44"/>
    <circle id="Ellipse_21" data-name="Ellipse 21" cx="2.161" cy="2.161" r="2.161" transform="translate(265.547 83.12)" fill="#fdb797"/>
    <circle id="Ellipse_22" data-name="Ellipse 22" cx="2.161" cy="2.161" r="2.161" transform="translate(281.255 83.12)" fill="#fdb797"/>
    <path id="Path_219" data-name="Path 219" d="M459.8,381.79h.76a2.458,2.458,0,0,1,2.458,2.458v.674H457.33v-.674a2.458,2.458,0,0,1,2.468-2.458Z" transform="translate(-189.623 -267.054)" fill="#333"/>
    <path id="Path_220" data-name="Path 220" d="M498.938,381.79h.76a2.458,2.458,0,0,1,2.458,2.458v.674H496.47v-.674a2.458,2.458,0,0,1,2.468-2.458Z" transform="translate(-219.141 -267.054)" fill="#333"/>
    <path id="Path_221" data-name="Path 221" d="M588.044,291.21s-.787,4.123.59,5.9" transform="translate(-319.746 -218.102)" opacity="0.1"/>
    <path id="Path_222" data-name="Path 222" d="M644.43,291.21s.787,4.123-.59,5.9" transform="translate(-361.995 -218.102)" opacity="0.1"/>
  </g>
</svg>
