<svg xmlns="http://www.w3.org/2000/svg" width="57.5" height="57.5" viewBox="0 0 57.5 57.5">
  <g id="logout" transform="translate(-48 -48)">
    <path id="Path_250" data-name="Path 250" d="M192,176.227h26.221l-6.026,6.178,4.133,4.133L229.6,173.269,216.327,160l-4.285,4.133,6.178,6.178H192Z" transform="translate(-124.096 -96.519)" fill="#dd4c38"/>
    <path id="Path_251" data-name="Path 251" d="M76.709,99.6a22.848,22.848,0,1,1,16.1-39.034L97,56.376a30.549,30.549,0,0,0-3.829-3.207,28.773,28.773,0,1,0,3.815,43.94l-4.174-4.174A22.624,22.624,0,0,1,76.709,99.6Zm26.58-22.731-.117-.117.117-.117.117.117Z" fill="#dd4c38"/>
  </g>
</svg>
